# xmcd
#
# Track frame offsets:
#	150
#	13986
#	28361
#	45038
#	55997
#	72251
#	90925
#	105479
#	120148
#	140880
#	154859
#	174450
#	192126
#	202253
#	218768
#	236573
#	249808
#	262494
#
# Disc length: 3656 seconds
#
# Revision: 95490669
# Processed by: cddbd v1.5.2PL0 Copyright (c) Steve Scherf et al.
# Submitted via: EZCDAudioConverter 8.0.4.1
#
DISCID=fc0e4612
DTITLE=Compilation - 2001 - Ma Chanson D'Enfance
DYEAR=2001
DGENRE=Variété
TTITLE0=Pierpoljak - L' Eau Vive
TTITLE1=Johnny Hallyday - Le Parapluie
TTITLE2=Vanessa Paradis - Le Tourbillon
TTITLE3=Bernard Lavilliers - Le Loup, la Biche et le Chevalier
TTITLE4=Eddy Mitchell - La Pluie Fait des Claquettes
TTITLE5=Alain Bashung - Céline
TTITLE6=Jane Birkin - My Bonnie
TTITLE7=Arno - Be-Bop-A-Lula
TTITLE8=Sofia Mestari - Ils S'aiment
TTITLE9=Caogero - Peintre des Étoiles
TTITLE10=Brigade - Amina
TTITLE11=Faudel/Bernard Lavilliers - Complaínte de Mandrin
TTITLE12=Axel Bauer - Fais Pas Ci Fais Pas Ça
TTITLE13=Eddy Mitchell - Le Déserteur
TTITLE14=Elsa - Duel au Soleil
TTITLE15=Yuri Buenaventura - Duerme Negrito
TTITLE16=Clarika - Ballade Irlandaise
TTITLE17=Maxime le Forestier - Il Était un Petit Homme
EXTD=
EXTT0=
EXTT1=
EXTT2=
EXTT3=
EXTT4=
EXTT5=
EXTT6=
EXTT7=
EXTT8=
EXTT9=
EXTT10=
EXTT11=
EXTT12=
EXTT13=
EXTT14=
EXTT15=
EXTT16=
EXTT17=
PLAYORDER=
